<svg width="168" height="33" viewBox="0 0 168 33" fill="none" xmlns="http://www.w3.org/2000/svg">
<path d="M0.498535 32.3213L1.08805 28.1947L15.9943 4.86683H0.498535L1.08805 0.740234H21.5105L20.921 4.86683L6.0147 28.1947H21.5105L20.921 32.3213H0.498535Z" fill="#230CF2"/>
<path d="M40.9765 19.543L41.3555 19.5851L45.061 20.4694C43.503 24.5118 39.587 27.3751 34.9972 27.3751C28.9757 27.3751 24.1333 22.5327 24.1333 16.5112C24.1333 10.5319 28.9757 5.68945 34.9972 5.68945C40.9765 5.68945 45.819 10.5319 45.819 16.5112C45.819 16.7218 45.819 16.9323 45.819 17.1429H28.302C28.5968 20.5536 31.5022 23.2485 34.9972 23.2485C37.6079 23.2485 39.8817 21.7326 40.9765 19.543ZM28.7231 14.1532H41.2713C40.3028 11.6267 37.8605 9.81605 34.9972 9.81605C32.0917 9.81605 29.6495 11.6267 28.7231 14.1532Z" fill="#230CF2"/>
<path d="M48.4409 27.3751L49.0304 23.2485H50.5042V9.81605H48.4409L49.0304 5.68945H54.6308V7.66853C56.2309 6.48951 58.3363 5.68945 60.9891 5.68945C61.705 5.68945 62.4208 5.81578 63.0945 6.06843L61.7471 9.85816C61.4944 9.81605 61.2418 9.81605 60.9891 9.81605C56.3151 9.81605 54.8835 13.6479 54.6308 14.8269V23.2485H57.2836L56.6941 27.3751H48.4409Z" fill="#230CF2"/>
<path d="M76.5812 23.2485C80.2867 23.2485 83.2764 20.2168 83.2764 16.5112C83.2764 12.8057 80.2867 9.81605 76.5812 9.81605C72.8757 9.81605 69.8439 12.8057 69.8439 16.5112C69.8439 20.2168 72.8757 23.2485 76.5812 23.2485ZM65.7173 16.5112C65.7173 10.5319 70.5597 5.68945 76.5812 5.68945C82.5605 5.68945 87.403 10.5319 87.403 16.5112C87.403 22.5327 82.5605 27.3751 76.5812 27.3751C70.5597 27.3751 65.7173 22.5327 65.7173 16.5112Z" fill="#230CF2"/>
<path d="M102.952 18.2993C106.658 18.2993 109.647 15.3096 109.647 11.6041C109.647 7.89861 106.658 4.86683 102.952 4.86683C99.2466 4.86683 96.2148 7.89861 96.2148 11.6041C96.2148 15.3096 99.2466 18.2993 102.952 18.2993ZM98.2781 32.3213H90.0249L90.6144 28.1947H92.0882V4.86683H90.0249L90.6144 0.740234H98.8676L98.7834 1.5824C100.047 1.03499 101.478 0.740234 102.952 0.740234C108.931 0.740234 113.774 5.58267 113.774 11.6041C113.774 17.5835 108.931 22.4259 102.952 22.4259C100.426 22.4259 98.0676 21.5416 96.2148 20.11V28.1947H98.8676L98.2781 32.3213Z" fill="#230CF2"/>
<path d="M127.26 23.2485C130.965 23.2485 133.955 20.2168 133.955 16.5112C133.955 12.8057 130.965 9.81605 127.26 9.81605C123.554 9.81605 120.523 12.8057 120.523 16.5112C120.523 20.2168 123.554 23.2485 127.26 23.2485ZM140.145 27.3751H131.892L132.06 26.2382C130.586 26.9541 128.986 27.3751 127.26 27.3751C121.238 27.3751 116.396 22.5327 116.396 16.5112C116.396 10.5319 121.238 5.68945 127.26 5.68945C129.071 5.68945 130.797 6.15264 132.313 6.91059L132.481 5.68945H140.734L140.145 9.81605H138.082V23.2485H140.734L140.145 27.3751Z" fill="#230CF2"/>
<path d="M154.223 28.1947C157.928 28.1947 160.918 25.1629 160.918 21.4574C160.918 17.7519 157.928 14.7622 154.223 14.7622C150.517 14.7622 147.485 17.7519 147.485 21.4574C147.485 25.1629 150.517 28.1947 154.223 28.1947ZM167.108 32.3213H158.855L159.023 31.1844C157.549 31.9002 155.949 32.3213 154.223 32.3213C148.201 32.3213 143.359 27.4789 143.359 21.4574C143.359 15.4781 148.201 10.6356 154.223 10.6356C156.749 10.6356 159.065 11.5199 160.918 12.9516V0.740234H167.697L167.108 4.86683H165.045V28.1947H167.697L167.108 32.3213Z" fill="#230CF2"/>
</svg>
