<svg width="168" height="32" viewBox="0 0 168 32" fill="none" xmlns="http://www.w3.org/2000/svg">
<path d="M0.0751953 32.0069L0.664709 27.8803L15.571 4.55238H0.0751953L0.664709 0.425781H21.0871L20.4976 4.55238L5.59136 27.8803H21.0871L20.4976 32.0069H0.0751953Z" fill="white"/>
<path d="M40.5532 19.2286L40.9322 19.2707L44.6377 20.155C43.0797 24.1973 39.1636 27.0607 34.5739 27.0607C28.5524 27.0607 23.71 22.2183 23.71 16.1968C23.71 10.2174 28.5524 5.375 34.5739 5.375C40.5532 5.375 45.3956 10.2174 45.3956 16.1968C45.3956 16.4073 45.3956 16.6179 45.3956 16.8284H27.8787C28.1734 20.2392 31.0789 22.9341 34.5739 22.9341C37.1846 22.9341 39.4584 21.4182 40.5532 19.2286ZM28.2997 13.8387H40.848C39.8795 11.3122 37.4372 9.5016 34.5739 9.5016C31.6684 9.5016 29.2261 11.3122 28.2997 13.8387Z" fill="white"/>
<path d="M48.0176 27.0607L48.6071 22.9341H50.0809V9.5016H48.0176L48.6071 5.375H54.2075V7.35408C55.8076 6.17505 57.913 5.375 60.5658 5.375C61.2816 5.375 61.9975 5.50133 62.6712 5.75397L61.3237 9.5437C61.0711 9.5016 60.8184 9.5016 60.5658 9.5016C55.8918 9.5016 54.4601 13.3334 54.2075 14.5125V22.9341H56.8603L56.2708 27.0607H48.0176Z" fill="white"/>
<path d="M76.1578 22.9341C79.8634 22.9341 82.853 19.9023 82.853 16.1968C82.853 12.4913 79.8634 9.5016 76.1578 9.5016C72.4523 9.5016 69.4205 12.4913 69.4205 16.1968C69.4205 19.9023 72.4523 22.9341 76.1578 22.9341ZM65.2939 16.1968C65.2939 10.2174 70.1364 5.375 76.1578 5.375C82.1372 5.375 86.9796 10.2174 86.9796 16.1968C86.9796 22.2183 82.1372 27.0607 76.1578 27.0607C70.1364 27.0607 65.2939 22.2183 65.2939 16.1968Z" fill="white"/>
<path d="M102.529 17.9849C106.234 17.9849 109.224 14.9952 109.224 11.2897C109.224 7.58416 106.234 4.55238 102.529 4.55238C98.8232 4.55238 95.7915 7.58416 95.7915 11.2897C95.7915 14.9952 98.8232 17.9849 102.529 17.9849ZM97.8548 32.0069H89.6016L90.1911 27.8803H91.6649V4.55238H89.6016L90.1911 0.425781H98.4443L98.36 1.26794C99.6233 0.72054 101.055 0.425781 102.529 0.425781C108.508 0.425781 113.351 5.26821 113.351 11.2897C113.351 17.269 108.508 22.1115 102.529 22.1115C100.002 22.1115 97.6442 21.2272 95.7915 19.7955V27.8803H98.4443L97.8548 32.0069Z" fill="white"/>
<path d="M126.837 22.9341C130.542 22.9341 133.532 19.9023 133.532 16.1968C133.532 12.4913 130.542 9.5016 126.837 9.5016C123.131 9.5016 120.099 12.4913 120.099 16.1968C120.099 19.9023 123.131 22.9341 126.837 22.9341ZM139.722 27.0607H131.468L131.637 25.9238C130.163 26.6396 128.563 27.0607 126.837 27.0607C120.815 27.0607 115.973 22.2183 115.973 16.1968C115.973 10.2174 120.815 5.375 126.837 5.375C128.647 5.375 130.374 5.83819 131.89 6.59614L132.058 5.375H140.311L139.722 9.5016H137.658V22.9341H140.311L139.722 27.0607Z" fill="white"/>
<path d="M153.799 27.8803C157.504 27.8803 160.494 24.8485 160.494 21.143C160.494 17.4375 157.504 14.4478 153.799 14.4478C150.093 14.4478 147.062 17.4375 147.062 21.143C147.062 24.8485 150.093 27.8803 153.799 27.8803ZM166.684 32.0069H158.431L158.599 30.87C157.125 31.5858 155.525 32.0069 153.799 32.0069C147.777 32.0069 142.935 27.1644 142.935 21.143C142.935 15.1636 147.777 10.3212 153.799 10.3212C156.325 10.3212 158.641 11.2055 160.494 12.6371V0.425781H167.274L166.684 4.55238H164.621V27.8803H167.274L166.684 32.0069Z" fill="white"/>
</svg>
