<svg width="168" height="32" viewBox="0 0 168 32" fill="none" xmlns="http://www.w3.org/2000/svg">
<path d="M0.431641 32.0069L1.02115 27.8803L15.9274 4.55238H0.431641L1.02115 0.425781H21.4436L20.8541 4.55238L5.9478 27.8803H21.4436L20.8541 32.0069H0.431641Z" fill="black"/>
<path d="M40.9097 19.2286L41.2886 19.2707L44.9941 20.155C43.4361 24.1973 39.5201 27.0607 34.9303 27.0607C28.9088 27.0607 24.0664 22.2183 24.0664 16.1968C24.0664 10.2174 28.9088 5.375 34.9303 5.375C40.9097 5.375 45.7521 10.2174 45.7521 16.1968C45.7521 16.4073 45.7521 16.6179 45.7521 16.8284H28.2351C28.5299 20.2392 31.4353 22.9341 34.9303 22.9341C37.541 22.9341 39.8148 21.4182 40.9097 19.2286ZM28.6562 13.8387H41.2044C40.2359 11.3122 37.7937 9.5016 34.9303 9.5016C32.0248 9.5016 29.5826 11.3122 28.6562 13.8387Z" fill="black"/>
<path d="M48.3735 27.0607L48.963 22.9341H50.4368V9.5016H48.3735L48.963 5.375H54.5634V7.35408C56.1635 6.17505 58.2689 5.375 60.9218 5.375C61.6376 5.375 62.3534 5.50133 63.0272 5.75397L61.6797 9.5437C61.427 9.5016 61.1744 9.5016 60.9218 9.5016C56.2478 9.5016 54.8161 13.3334 54.5634 14.5125V22.9341H57.2162L56.6267 27.0607H48.3735Z" fill="black"/>
<path d="M76.5143 22.9341C80.2198 22.9341 83.2095 19.9023 83.2095 16.1968C83.2095 12.4913 80.2198 9.5016 76.5143 9.5016C72.8088 9.5016 69.777 12.4913 69.777 16.1968C69.777 19.9023 72.8088 22.9341 76.5143 22.9341ZM65.6504 16.1968C65.6504 10.2174 70.4928 5.375 76.5143 5.375C82.4936 5.375 87.3361 10.2174 87.3361 16.1968C87.3361 22.2183 82.4936 27.0607 76.5143 27.0607C70.4928 27.0607 65.6504 22.2183 65.6504 16.1968Z" fill="black"/>
<path d="M102.885 17.9849C106.591 17.9849 109.58 14.9952 109.58 11.2897C109.58 7.58416 106.591 4.55238 102.885 4.55238C99.1797 4.55238 96.1479 7.58416 96.1479 11.2897C96.1479 14.9952 99.1797 17.9849 102.885 17.9849ZM98.2112 32.0069H89.958L90.5475 27.8803H92.0213V4.55238H89.958L90.5475 0.425781H98.8007L98.7165 1.26794C99.9797 0.72054 101.411 0.425781 102.885 0.425781C108.865 0.425781 113.707 5.26821 113.707 11.2897C113.707 17.269 108.865 22.1115 102.885 22.1115C100.359 22.1115 98.0007 21.2272 96.1479 19.7955V27.8803H98.8007L98.2112 32.0069Z" fill="black"/>
<path d="M127.193 22.9341C130.899 22.9341 133.889 19.9023 133.889 16.1968C133.889 12.4913 130.899 9.5016 127.193 9.5016C123.488 9.5016 120.456 12.4913 120.456 16.1968C120.456 19.9023 123.488 22.9341 127.193 22.9341ZM140.079 27.0607H131.825L131.994 25.9238C130.52 26.6396 128.92 27.0607 127.193 27.0607C121.172 27.0607 116.33 22.2183 116.33 16.1968C116.33 10.2174 121.172 5.375 127.193 5.375C129.004 5.375 130.731 5.83819 132.246 6.59614L132.415 5.375H140.668L140.079 9.5016H138.015V22.9341H140.668L140.079 27.0607Z" fill="black"/>
<path d="M154.156 27.8803C157.861 27.8803 160.851 24.8485 160.851 21.143C160.851 17.4375 157.861 14.4478 154.156 14.4478C150.45 14.4478 147.419 17.4375 147.419 21.143C147.419 24.8485 150.45 27.8803 154.156 27.8803ZM167.041 32.0069H158.788L158.956 30.87C157.482 31.5858 155.882 32.0069 154.156 32.0069C148.134 32.0069 143.292 27.1644 143.292 21.143C143.292 15.1636 148.134 10.3212 154.156 10.3212C156.682 10.3212 158.998 11.2055 160.851 12.6371V0.425781H167.63L167.041 4.55238H164.978V27.8803H167.63L167.041 32.0069Z" fill="black"/>
</svg>
