<svg width="24" height="25" viewBox="0 0 24 25" fill="none" xmlns="http://www.w3.org/2000/svg">
<path d="M10.0115 7.95313L6.85292 7.95312C5.67327 7.95312 4.53155 8.41648 3.6943 9.26613C2.85705 10.1158 2.38138 11.255 2.40046 12.4715C2.38133 13.688 2.85719 14.8274 3.6943 15.6769C4.55051 16.5458 5.65413 17.0093 6.83382 17.0093H9.9924M13.9883 17.0479H17.1469C18.3265 17.0479 19.4683 16.5845 20.3055 15.7349C21.1428 14.8852 21.6184 13.746 21.5993 12.5295C21.5993 11.3324 21.1237 10.1931 20.2864 9.34347C19.4492 8.49382 18.3266 8.01111 17.1469 8.01109H13.9883M7.25235 12.4583L16.7281 12.4583" stroke="#248DFF" stroke-width="2" stroke-linecap="round" stroke-linejoin="round"/>
</svg>
