<svg width="120" height="24" viewBox="0 0 120 24" fill="none" xmlns="http://www.w3.org/2000/svg">
<path d="M0 23.3155L0.422427 20.3586L11.1038 3.64253H0L0.422427 0.685547H15.0565L14.6341 3.64253L3.95271 20.3586H15.0565L14.6341 23.3155H0Z" fill="white"/>
<path d="M29.0049 14.1594L29.2764 14.1896L31.9317 14.8233C30.8153 17.7199 28.0092 19.7717 24.7203 19.7717C20.4055 19.7717 16.9355 16.3018 16.9355 11.987C16.9355 7.70236 20.4055 4.23242 24.7203 4.23242C29.0049 4.23242 32.4748 7.70236 32.4748 11.987C32.4748 12.1378 32.4748 12.2887 32.4748 12.4396H19.9227C20.1339 14.8836 22.2159 16.8147 24.7203 16.8147C26.591 16.8147 28.2204 15.7285 29.0049 14.1594ZM20.2244 10.2973H29.2161C28.5221 8.48686 26.7721 7.18941 24.7203 7.18941C22.6383 7.18941 20.8883 8.48686 20.2244 10.2973Z" fill="white"/>
<path d="M34.3545 19.7717L34.7769 16.8147H35.833V7.18941H34.3545L34.7769 4.23242H38.79V5.65057C39.9366 4.80571 41.4452 4.23242 43.3461 4.23242C43.8591 4.23242 44.372 4.32294 44.8548 4.50398L43.8893 7.21958C43.7082 7.18941 43.5272 7.18941 43.3461 7.18941C39.9969 7.18941 38.971 9.93518 38.79 10.78V16.8147H40.6909L40.2685 19.7717H34.3545Z" fill="white"/>
<path d="M54.5181 16.8147C57.1734 16.8147 59.3157 14.6422 59.3157 11.987C59.3157 9.33172 57.1734 7.18941 54.5181 7.18941C51.8629 7.18941 49.6904 9.33172 49.6904 11.987C49.6904 14.6422 51.8629 16.8147 54.5181 16.8147ZM46.7334 11.987C46.7334 7.70236 50.2033 4.23242 54.5181 4.23242C58.8027 4.23242 62.2727 7.70236 62.2727 11.987C62.2727 16.3018 58.8027 19.7717 54.5181 19.7717C50.2033 19.7717 46.7334 16.3018 46.7334 11.987Z" fill="white"/>
<path d="M73.4156 13.2678C76.0708 13.2678 78.2131 11.1255 78.2131 8.47027C78.2131 5.81501 76.0708 3.64253 73.4156 3.64253C70.7603 3.64253 68.5878 5.81501 68.5878 8.47027C68.5878 11.1255 70.7603 13.2678 73.4156 13.2678ZM70.0663 23.3155H64.1523L64.5748 20.3586H65.6308V3.64253H64.1523L64.5748 0.685547H70.4887L70.4284 1.28901C71.3336 0.896761 72.3595 0.685547 73.4156 0.685547C77.7002 0.685547 81.1701 4.15548 81.1701 8.47027C81.1701 12.7549 77.7002 16.2248 73.4156 16.2248C71.6052 16.2248 69.9154 15.5912 68.5878 14.5653V20.3586H70.4887L70.0663 23.3155Z" fill="white"/>
<path d="M90.8335 16.8147C93.4888 16.8147 95.6311 14.6422 95.6311 11.987C95.6311 9.33172 93.4888 7.18941 90.8335 7.18941C88.1783 7.18941 86.0058 9.33172 86.0058 11.987C86.0058 14.6422 88.1783 16.8147 90.8335 16.8147ZM100.067 19.7717H94.1526L94.2733 18.957C93.2172 19.47 92.0707 19.7717 90.8335 19.7717C86.5188 19.7717 83.0488 16.3018 83.0488 11.987C83.0488 7.70236 86.5188 4.23242 90.8335 4.23242C92.131 4.23242 93.3681 4.56433 94.4543 5.10745L94.575 4.23242H100.489L100.067 7.18941H98.5881V16.8147H100.489L100.067 19.7717Z" fill="white"/>
<path d="M110.154 20.3586C112.809 20.3586 114.951 18.1861 114.951 15.5308C114.951 12.8756 112.809 10.7333 110.154 10.7333C107.499 10.7333 105.326 12.8756 105.326 15.5308C105.326 18.1861 107.499 20.3586 110.154 20.3586ZM119.387 23.3155H113.473L113.594 22.5009C112.538 23.0138 111.391 23.3155 110.154 23.3155C105.839 23.3155 102.369 19.8456 102.369 15.5308C102.369 11.2462 105.839 7.77628 110.154 7.77628C111.964 7.77628 113.624 8.40992 114.951 9.43581V0.685547H119.809L119.387 3.64253H117.908V20.3586H119.809L119.387 23.3155Z" fill="white"/>
</svg>
