<svg width="159" height="36" viewBox="0 0 159 36" fill="none" xmlns="http://www.w3.org/2000/svg">
<rect width="159" height="36" rx="12" fill="#C5F604"/>
<path d="M18 18.9V14.4145M18 22.2248V22.2642M23.6699 26H12.3301C10.7811 26 9.47392 24.9763 9.06265 23.5757C8.88709 22.9778 9.10281 22.3551 9.43276 21.8249L15.1027 11.601C16.4311 9.46632 19.5689 9.46633 20.8973 11.601L26.5672 21.8249C26.8972 22.3551 27.1129 22.9778 26.9373 23.5757C26.5261 24.9763 25.2189 26 23.6699 26Z" stroke="black" stroke-width="2" stroke-linecap="round" stroke-linejoin="round"/>
<path d="M42.472 23.128C41.7573 23.128 41.08 23.032 40.44 22.84C39.8107 22.6373 39.272 22.312 38.824 21.864C38.376 21.4053 38.072 20.7973 37.912 20.04H39.368C39.5173 20.52 39.7573 20.8933 40.088 21.16C40.4293 21.4267 40.8187 21.6133 41.256 21.72C41.6933 21.816 42.1307 21.864 42.568 21.864C43.0053 21.864 43.4107 21.8053 43.784 21.688C44.168 21.56 44.4773 21.3573 44.712 21.08C44.9573 20.8027 45.08 20.4453 45.08 20.008C45.08 19.6667 45.016 19.3893 44.888 19.176C44.7707 18.9627 44.6 18.792 44.376 18.664C44.1627 18.5253 43.9067 18.4133 43.608 18.328C43.2133 18.2 42.792 18.0933 42.344 18.008C41.896 17.9227 41.4533 17.8213 41.016 17.704C40.5893 17.5867 40.1893 17.4373 39.816 17.256C39.6133 17.1493 39.416 17.0213 39.224 16.872C39.0427 16.712 38.8827 16.5307 38.744 16.328C38.616 16.1147 38.5093 15.8747 38.424 15.608C38.3493 15.3413 38.312 15.048 38.312 14.728C38.312 14.248 38.3867 13.832 38.536 13.48C38.6853 13.128 38.888 12.8293 39.144 12.584C39.4 12.3387 39.6987 12.1413 40.04 11.992C40.3813 11.8427 40.744 11.736 41.128 11.672C41.5227 11.5973 41.9173 11.56 42.312 11.56C42.9627 11.56 43.5707 11.6613 44.136 11.864C44.712 12.056 45.1867 12.3707 45.56 12.808C45.944 13.2453 46.152 13.8373 46.184 14.584H44.824C44.7707 14.136 44.6213 13.784 44.376 13.528C44.1307 13.272 43.8267 13.0907 43.464 12.984C43.1013 12.8773 42.7173 12.824 42.312 12.824C42.0133 12.824 41.7093 12.8507 41.4 12.904C41.1013 12.9573 40.824 13.0533 40.568 13.192C40.3227 13.32 40.1253 13.5013 39.976 13.736C39.8267 13.96 39.752 14.248 39.752 14.6C39.752 14.8773 39.8 15.1227 39.896 15.336C40.0027 15.5493 40.1413 15.7307 40.312 15.88C40.4933 16.0187 40.6907 16.136 40.904 16.232C41.416 16.4453 41.9813 16.6053 42.6 16.712C43.2293 16.808 43.816 16.952 44.36 17.144C44.68 17.2507 44.9733 17.384 45.24 17.544C45.5067 17.704 45.7307 17.8907 45.912 18.104C46.104 18.3173 46.248 18.5627 46.344 18.84C46.4507 19.1067 46.504 19.4107 46.504 19.752C46.504 20.3707 46.3973 20.8987 46.184 21.336C45.9707 21.7627 45.6773 22.1093 45.304 22.376C44.9307 22.6427 44.4987 22.8347 44.008 22.952C43.528 23.0693 43.016 23.128 42.472 23.128ZM51.8855 23.096C51.0428 23.096 50.3495 22.9093 49.8055 22.536C49.2615 22.152 48.8562 21.64 48.5895 21C48.3228 20.3493 48.1895 19.6187 48.1895 18.808C48.1895 17.9973 48.3228 17.2667 48.5895 16.616C48.8562 15.9547 49.2668 15.432 49.8215 15.048C50.3762 14.664 51.0855 14.472 51.9495 14.472C52.2802 14.472 52.6108 14.5147 52.9415 14.6C53.2828 14.6747 53.6028 14.7973 53.9015 14.968C54.2002 15.128 54.4562 15.3467 54.6695 15.624V11.688H56.0295V23H54.7335L54.6695 21.736C54.4775 22.056 54.2322 22.3173 53.9335 22.52C53.6455 22.712 53.3255 22.856 52.9735 22.952C52.6215 23.048 52.2588 23.096 51.8855 23.096ZM52.0775 21.896C52.6428 21.896 53.1175 21.752 53.5015 21.464C53.8855 21.176 54.1788 20.792 54.3815 20.312C54.5842 19.832 54.6855 19.3093 54.6855 18.744C54.6855 18.1573 54.5842 17.6347 54.3815 17.176C54.1895 16.7173 53.9015 16.3547 53.5175 16.088C53.1335 15.8213 52.6482 15.688 52.0615 15.688C51.4535 15.688 50.9628 15.8267 50.5895 16.104C50.2268 16.3813 49.9602 16.76 49.7895 17.24C49.6295 17.7093 49.5495 18.2373 49.5495 18.824C49.5495 19.2507 49.5922 19.6507 49.6775 20.024C49.7735 20.3867 49.9175 20.712 50.1095 21C50.3122 21.2773 50.5735 21.496 50.8935 21.656C51.2135 21.816 51.6082 21.896 52.0775 21.896ZM60.8698 23.096C60.4858 23.096 60.1124 23.048 59.7498 22.952C59.3978 22.8453 59.0778 22.6907 58.7898 22.488C58.5124 22.2747 58.2884 22.0133 58.1178 21.704C57.9578 21.384 57.8778 21.016 57.8778 20.6C57.8778 20.12 57.9631 19.7147 58.1338 19.384C58.3151 19.0533 58.5551 18.792 58.8538 18.6C59.1524 18.408 59.4991 18.2693 59.8938 18.184C60.2884 18.0987 60.6991 18.056 61.1258 18.056H63.6058C63.6058 17.576 63.5364 17.16 63.3978 16.808C63.2698 16.456 63.0564 16.184 62.7578 15.992C62.4591 15.7893 62.0644 15.688 61.5738 15.688C61.2751 15.688 60.9978 15.72 60.7418 15.784C60.4858 15.848 60.2671 15.9493 60.0858 16.088C59.9044 16.2267 59.7711 16.4133 59.6858 16.648H58.2298C58.3044 16.264 58.4484 15.9387 58.6618 15.672C58.8858 15.3947 59.1524 15.1707 59.4618 15C59.7818 14.8187 60.1231 14.6853 60.4858 14.6C60.8484 14.5147 61.2111 14.472 61.5738 14.472C62.7898 14.472 63.6538 14.8293 64.1658 15.544C64.6778 16.2587 64.9338 17.224 64.9338 18.44V23H63.7978L63.7178 21.928C63.4831 22.248 63.2004 22.4933 62.8698 22.664C62.5391 22.8347 62.1978 22.9467 61.8458 23C61.5044 23.064 61.1791 23.096 60.8698 23.096ZM60.9978 21.896C61.5311 21.896 61.9898 21.8107 62.3738 21.64C62.7684 21.4587 63.0724 21.1973 63.2858 20.856C63.4991 20.5147 63.6058 20.0987 63.6058 19.608V19.192H62.1178C61.7658 19.192 61.4191 19.1973 61.0778 19.208C60.7364 19.2187 60.4271 19.2613 60.1498 19.336C59.8724 19.4107 59.6484 19.5387 59.4778 19.72C59.3178 19.9013 59.2378 20.1627 59.2378 20.504C59.2378 20.824 59.3178 21.0853 59.4778 21.288C59.6484 21.4907 59.8671 21.6453 60.1338 21.752C60.4111 21.848 60.6991 21.896 60.9978 21.896ZM70.1128 23.096C69.7288 23.096 69.3394 23.0587 68.9448 22.984C68.5608 22.9093 68.1981 22.7813 67.8568 22.6C67.5261 22.4187 67.2488 22.1733 67.0247 21.864C66.8008 21.5547 66.6568 21.1707 66.5928 20.712H67.9688C68.0754 21 68.2461 21.2347 68.4808 21.416C68.7261 21.5867 68.9981 21.7093 69.2968 21.784C69.6061 21.8587 69.8994 21.896 70.1768 21.896C70.3474 21.896 70.5448 21.8853 70.7688 21.864C70.9928 21.8427 71.2061 21.7947 71.4088 21.72C71.6221 21.6347 71.7928 21.512 71.9208 21.352C72.0594 21.192 72.1288 20.968 72.1288 20.68C72.1288 20.4667 72.0808 20.2907 71.9848 20.152C71.8888 20.0133 71.7554 19.9013 71.5848 19.816C71.4141 19.72 71.2061 19.6507 70.9608 19.608C70.4594 19.5013 69.9208 19.4 69.3448 19.304C68.7794 19.208 68.2781 19.0267 67.8408 18.76C67.6914 18.664 67.5528 18.5573 67.4248 18.44C67.3074 18.312 67.2061 18.1733 67.1208 18.024C67.0354 17.864 66.9661 17.6933 66.9128 17.512C66.8701 17.32 66.8488 17.112 66.8488 16.888C66.8488 16.472 66.9288 16.1147 67.0888 15.816C67.2594 15.5067 67.4941 15.256 67.7928 15.064C68.0914 14.8613 68.4328 14.712 68.8168 14.616C69.2114 14.52 69.6328 14.472 70.0807 14.472C70.6354 14.472 71.1314 14.5627 71.5688 14.744C72.0168 14.9147 72.3848 15.1707 72.6728 15.512C72.9608 15.8427 73.1314 16.2533 73.1848 16.744H71.9208C71.8461 16.4347 71.6434 16.184 71.3128 15.992C70.9821 15.7893 70.5608 15.688 70.0488 15.688C69.8781 15.688 69.6861 15.704 69.4728 15.736C69.2594 15.7573 69.0568 15.8107 68.8648 15.896C68.6728 15.9707 68.5128 16.088 68.3848 16.248C68.2568 16.3973 68.1928 16.6 68.1928 16.856C68.1928 17.0907 68.2514 17.288 68.3688 17.448C68.4968 17.608 68.6728 17.736 68.8968 17.832C69.1208 17.928 69.3768 18.008 69.6648 18.072C70.0381 18.1467 70.4488 18.2267 70.8968 18.312C71.3448 18.3867 71.6968 18.4667 71.9528 18.552C72.2941 18.6587 72.5768 18.808 72.8008 19C73.0354 19.192 73.2061 19.4213 73.3128 19.688C73.4301 19.9547 73.4888 20.264 73.4888 20.616C73.4888 21.1173 73.3874 21.528 73.1848 21.848C72.9928 22.168 72.7314 22.4187 72.4008 22.6C72.0701 22.7813 71.7021 22.9093 71.2968 22.984C70.9021 23.0587 70.5074 23.096 70.1128 23.096ZM78.9376 23.096C78.0523 23.096 77.3163 22.9147 76.7296 22.552C76.1536 22.1787 75.7216 21.6667 75.4336 21.016C75.1563 20.3653 75.0176 19.6293 75.0176 18.808C75.0176 18.008 75.1616 17.2827 75.4496 16.632C75.7483 15.9707 76.1963 15.448 76.7936 15.064C77.4016 14.6693 78.1696 14.472 79.0976 14.472C79.6736 14.472 80.1856 14.568 80.6336 14.76C81.0923 14.952 81.471 15.2347 81.7696 15.608C82.0683 15.9707 82.2763 16.4293 82.3936 16.984H81.0016C80.8416 16.5147 80.5856 16.184 80.2336 15.992C79.8923 15.7893 79.487 15.688 79.0176 15.688C78.3776 15.688 77.8656 15.8373 77.4816 16.136C77.0976 16.4347 76.815 16.824 76.6336 17.304C76.463 17.7733 76.3776 18.2747 76.3776 18.808C76.3776 19.3627 76.4683 19.8747 76.6496 20.344C76.831 20.8133 77.1136 21.192 77.4976 21.48C77.8816 21.7573 78.3776 21.896 78.9856 21.896C79.4336 21.896 79.855 21.8 80.2496 21.608C80.655 21.416 80.9216 21.0747 81.0496 20.584H82.4576C82.351 21.16 82.1216 21.6347 81.7696 22.008C81.4283 22.3813 81.007 22.6587 80.5056 22.84C80.015 23.0107 79.4923 23.096 78.9376 23.096ZM89.0774 23.128C87.9147 23.128 86.944 22.8827 86.1654 22.392C85.3974 21.8907 84.8214 21.208 84.4374 20.344C84.064 19.4693 83.8774 18.472 83.8774 17.352C83.8774 16.2427 84.0694 15.256 84.4534 14.392C84.8374 13.5173 85.4134 12.8293 86.1814 12.328C86.96 11.816 87.936 11.56 89.1094 11.56C89.9414 11.56 90.656 11.6933 91.2534 11.96C91.8614 12.216 92.352 12.5733 92.7254 13.032C93.0987 13.4907 93.3547 14.0293 93.4934 14.648H92.0854C91.9254 14.0933 91.5787 13.6507 91.0454 13.32C90.5227 12.9893 89.8614 12.824 89.0614 12.824C88.1654 12.824 87.44 13.0373 86.8854 13.464C86.3414 13.88 85.9414 14.4293 85.6854 15.112C85.4294 15.784 85.3014 16.5147 85.3014 17.304C85.3014 18.136 85.4347 18.8987 85.7014 19.592C85.968 20.2853 86.384 20.84 86.9494 21.256C87.5147 21.6613 88.2347 21.864 89.1094 21.864C89.6427 21.864 90.1174 21.7893 90.5334 21.64C90.96 21.4907 91.312 21.2773 91.5894 21C91.8774 20.7227 92.0747 20.4027 92.1814 20.04H93.7014C93.5414 20.6587 93.2534 21.2027 92.8374 21.672C92.432 22.1307 91.9147 22.488 91.2854 22.744C90.656 23 89.92 23.128 89.0774 23.128ZM95.9226 23.128C95.6453 23.128 95.416 23.0373 95.2346 22.856C95.0533 22.6747 94.9626 22.4453 94.9626 22.168C94.9626 21.8907 95.0533 21.6613 95.2346 21.48C95.416 21.2987 95.6453 21.208 95.9226 21.208C96.2 21.208 96.4293 21.2987 96.6106 21.48C96.792 21.6613 96.8826 21.8907 96.8826 22.168C96.8826 22.4453 96.792 22.6747 96.6106 22.856C96.4293 23.0373 96.2 23.128 95.9226 23.128ZM99.9851 23.128C99.7078 23.128 99.4785 23.0373 99.2971 22.856C99.1158 22.6747 99.0251 22.4453 99.0251 22.168C99.0251 21.8907 99.1158 21.6613 99.2971 21.48C99.4785 21.2987 99.7078 21.208 99.9851 21.208C100.262 21.208 100.492 21.2987 100.673 21.48C100.854 21.6613 100.945 21.8907 100.945 22.168C100.945 22.4453 100.854 22.6747 100.673 22.856C100.492 23.0373 100.262 23.128 99.9851 23.128ZM104.048 23.128C103.77 23.128 103.541 23.0373 103.36 22.856C103.178 22.6747 103.088 22.4453 103.088 22.168C103.088 21.8907 103.178 21.6613 103.36 21.48C103.541 21.2987 103.77 21.208 104.048 21.208C104.325 21.208 104.554 21.2987 104.736 21.48C104.917 21.6613 105.008 21.8907 105.008 22.168C105.008 22.4453 104.917 22.6747 104.736 22.856C104.554 23.0373 104.325 23.128 104.048 23.128ZM107.199 23V21.832L110.399 19.064C110.687 18.8187 111.001 18.552 111.343 18.264C111.695 17.9653 112.025 17.6453 112.335 17.304C112.655 16.9627 112.916 16.6 113.119 16.216C113.332 15.8213 113.439 15.4053 113.439 14.968C113.439 14.2853 113.236 13.7627 112.831 13.4C112.425 13.0267 111.881 12.84 111.199 12.84C110.655 12.84 110.18 12.952 109.775 13.176C109.369 13.4 109.103 13.7253 108.975 14.152H107.487C107.593 13.5653 107.833 13.0853 108.207 12.712C108.591 12.328 109.049 12.04 109.583 11.848C110.127 11.656 110.687 11.56 111.263 11.56C111.967 11.56 112.585 11.688 113.119 11.944C113.663 12.2 114.084 12.5733 114.383 13.064C114.692 13.544 114.847 14.136 114.847 14.84C114.847 15.5333 114.713 16.1413 114.447 16.664C114.191 17.1867 113.849 17.6613 113.423 18.088C113.007 18.504 112.559 18.9147 112.079 19.32L109.215 21.736H114.975V23H107.199ZM120.437 23.128C119.989 23.128 119.536 23.0853 119.077 23C118.629 22.904 118.208 22.7547 117.813 22.552C117.429 22.3493 117.099 22.0773 116.821 21.736C116.555 21.3947 116.384 20.9733 116.309 20.472H117.749C117.877 20.8347 118.091 21.1173 118.389 21.32C118.688 21.5227 119.019 21.6667 119.381 21.752C119.755 21.8267 120.112 21.864 120.453 21.864C120.699 21.864 120.965 21.8427 121.253 21.8C121.541 21.7573 121.819 21.6667 122.085 21.528C122.363 21.3893 122.587 21.1867 122.757 20.92C122.928 20.6427 123.013 20.28 123.013 19.832C123.013 19.4053 122.933 19.064 122.773 18.808C122.613 18.5413 122.4 18.344 122.133 18.216C121.867 18.0773 121.568 17.9867 121.237 17.944C120.917 17.9013 120.592 17.88 120.261 17.88H119.173V16.632H119.829C120.203 16.632 120.555 16.6 120.885 16.536C121.216 16.4613 121.509 16.3493 121.765 16.2C122.021 16.0507 122.219 15.8533 122.357 15.608C122.507 15.3627 122.581 15.0587 122.581 14.696C122.581 14.1733 122.469 13.7787 122.245 13.512C122.032 13.2453 121.755 13.064 121.413 12.968C121.072 12.872 120.715 12.824 120.341 12.824C120.043 12.824 119.733 12.872 119.413 12.968C119.104 13.0533 118.827 13.1973 118.581 13.4C118.336 13.592 118.171 13.8533 118.085 14.184H116.693C116.757 13.7147 116.907 13.3147 117.141 12.984C117.376 12.6533 117.664 12.3813 118.005 12.168C118.357 11.9547 118.741 11.8 119.157 11.704C119.584 11.608 120.016 11.56 120.453 11.56C120.933 11.56 121.381 11.6133 121.797 11.72C122.224 11.816 122.597 11.9813 122.917 12.216C123.237 12.44 123.488 12.7387 123.669 13.112C123.861 13.4853 123.957 13.9387 123.957 14.472C123.957 14.8667 123.893 15.2293 123.765 15.56C123.637 15.8907 123.445 16.1787 123.189 16.424C122.944 16.6693 122.635 16.872 122.261 17.032C122.741 17.1173 123.141 17.288 123.461 17.544C123.792 17.8 124.037 18.1147 124.197 18.488C124.368 18.8507 124.453 19.2613 124.453 19.72C124.453 20.4347 124.325 21.016 124.069 21.464C123.813 21.912 123.483 22.2587 123.077 22.504C122.672 22.7387 122.235 22.904 121.765 23C121.296 23.0853 120.853 23.128 120.437 23.128ZM130.287 23.144C129.818 23.144 129.365 23.0907 128.927 22.984C128.501 22.8773 128.111 22.7173 127.759 22.504C127.407 22.28 127.109 21.9973 126.863 21.656C126.618 21.3147 126.447 20.9093 126.351 20.44H127.759C127.877 20.7387 128.063 20.9947 128.319 21.208C128.575 21.4213 128.863 21.5867 129.183 21.704C129.514 21.8107 129.839 21.864 130.159 21.864C130.682 21.864 131.146 21.7787 131.551 21.608C131.967 21.4373 132.298 21.176 132.543 20.824C132.789 20.4613 132.911 19.9973 132.911 19.432C132.911 18.6533 132.677 18.056 132.207 17.64C131.738 17.224 131.13 17.016 130.383 17.016C129.935 17.016 129.519 17.096 129.135 17.256C128.762 17.416 128.421 17.6347 128.111 17.912H126.671L127.183 11.688H133.951V12.968H128.431L128.111 16.52C128.399 16.2853 128.751 16.0987 129.167 15.96C129.583 15.8107 130.095 15.736 130.703 15.736C131.429 15.736 132.063 15.8853 132.607 16.184C133.162 16.4827 133.589 16.904 133.887 17.448C134.197 17.9813 134.351 18.616 134.351 19.352C134.351 20.1413 134.17 20.8187 133.807 21.384C133.455 21.9493 132.97 22.3867 132.351 22.696C131.743 22.9947 131.055 23.144 130.287 23.144ZM138.995 23.096C138.611 23.096 138.237 23.048 137.875 22.952C137.523 22.8453 137.203 22.6907 136.915 22.488C136.637 22.2747 136.413 22.0133 136.243 21.704C136.083 21.384 136.003 21.016 136.003 20.6C136.003 20.12 136.088 19.7147 136.259 19.384C136.44 19.0533 136.68 18.792 136.979 18.6C137.277 18.408 137.624 18.2693 138.019 18.184C138.413 18.0987 138.824 18.056 139.251 18.056H141.731C141.731 17.576 141.661 17.16 141.523 16.808C141.395 16.456 141.181 16.184 140.883 15.992C140.584 15.7893 140.189 15.688 139.699 15.688C139.4 15.688 139.123 15.72 138.867 15.784C138.611 15.848 138.392 15.9493 138.211 16.088C138.029 16.2267 137.896 16.4133 137.811 16.648H136.355C136.429 16.264 136.573 15.9387 136.787 15.672C137.011 15.3947 137.277 15.1707 137.587 15C137.907 14.8187 138.248 14.6853 138.611 14.6C138.973 14.5147 139.336 14.472 139.699 14.472C140.915 14.472 141.779 14.8293 142.291 15.544C142.803 16.2587 143.059 17.224 143.059 18.44V23H141.923L141.843 21.928C141.608 22.248 141.325 22.4933 140.995 22.664C140.664 22.8347 140.323 22.9467 139.971 23C139.629 23.064 139.304 23.096 138.995 23.096ZM139.123 21.896C139.656 21.896 140.115 21.8107 140.499 21.64C140.893 21.4587 141.197 21.1973 141.411 20.856C141.624 20.5147 141.731 20.0987 141.731 19.608V19.192H140.243C139.891 19.192 139.544 19.1973 139.203 19.208C138.861 19.2187 138.552 19.2613 138.275 19.336C137.997 19.4107 137.773 19.5387 137.603 19.72C137.443 19.9013 137.363 20.1627 137.363 20.504C137.363 20.824 137.443 21.0853 137.603 21.288C137.773 21.4907 137.992 21.6453 138.259 21.752C138.536 21.848 138.824 21.896 139.123 21.896Z" fill="black"/>
</svg>
